<?xml version="1.0" standalone="no"?>
<!DOCTYPE svg PUBLIC "-//W3C//DTD SVG 20010904//EN"
 "http://www.w3.org/TR/2001/REC-SVG-20010904/DTD/svg10.dtd">
<svg version="1.0" xmlns="http://www.w3.org/2000/svg"
 width="1280.000000pt" height="1103.000000pt" viewBox="0 0 1280.000000 1103.000000"
 preserveAspectRatio="xMidYMid meet">
<metadata>
Created by potrace 1.15, written by Peter Selinger 2001-2017
</metadata>
<g transform="translate(0.000000,1103.000000) scale(0.100000,-0.100000)"
fill="#000000" stroke="none">
<path d="M7722 10989 c-12 -49 -7 -69 19 -69 23 0 36 42 23 78 -14 40 -30 36
-42 -9z"/>
<path d="M7337 10903 c-10 -18 -19 -94 -32 -274 -7 -105 -16 -193 -19 -196 -3
-3 -41 -20 -84 -38 -150 -61 -251 -146 -300 -253 -20 -44 -27 -77 -30 -147 -4
-86 -2 -95 38 -200 51 -135 60 -218 36 -350 -9 -49 -16 -125 -16 -167 0 -68
-3 -79 -22 -92 -12 -9 -24 -14 -26 -12 -12 13 -23 100 -32 251 -10 170 -28
270 -56 313 -9 13 -17 22 -20 20 -2 -2 1 -53 6 -114 22 -246 29 -385 21 -407
-7 -17 -11 -6 -20 53 -18 116 -31 167 -47 187 -14 16 -15 8 -10 -77 4 -52 9
-143 12 -201 8 -131 -5 -171 -29 -88 -26 91 -45 206 -61 384 -47 493 -56 548
-122 744 -33 97 -48 159 -55 229 -10 104 -24 137 -63 144 -33 7 -34 14 9 -239
82 -480 94 -555 110 -688 27 -218 23 -625 -6 -625 -5 0 -9 33 -9 74 0 66 -3
78 -26 105 -14 17 -30 31 -35 31 -5 0 -9 -51 -9 -112 0 -196 -25 -179 -61 41
-28 173 -49 216 -124 255 l-30 16 3 92 c4 105 -5 148 -74 356 -24 73 -58 190
-75 260 -30 126 -58 200 -84 222 -11 9 -13 7 -9 -7 17 -70 194 -999 228 -1193
34 -196 83 -540 96 -675 5 -60 13 -126 16 -145 13 -79 -6 -15 -46 150 -23 96
-65 267 -92 380 -27 113 -103 428 -168 700 -120 504 -140 573 -186 638 l-26
37 7 -65 c8 -84 45 -249 95 -425 96 -342 121 -502 102 -665 -6 -51 -13 -95
-16 -97 -9 -10 -65 38 -88 75 -32 51 -30 131 6 242 16 47 30 113 33 147 5 54
2 70 -21 117 -31 63 -90 120 -154 148 -50 23 -162 37 -162 21 0 -16 18 -28
116 -81 74 -41 92 -55 112 -93 31 -58 26 -114 -24 -233 -38 -93 -39 -101 -18
-242 4 -28 2 -44 -9 -52 -12 -10 -21 2 -54 75 -53 113 -98 237 -168 454 -31
96 -74 224 -96 284 -43 119 -151 344 -156 328 -6 -17 81 -324 146 -513 32 -96
113 -321 179 -500 66 -179 142 -389 169 -467 l48 -142 42 -16 c48 -19 83 -57
83 -91 0 -33 -15 -38 -34 -10 -8 13 -34 30 -58 38 -40 13 -47 21 -95 109 -74
133 -187 377 -405 879 -181 416 -251 562 -289 596 -17 15 -17 13 -3 -48 34
-147 66 -227 237 -583 57 -121 117 -254 132 -295 29 -81 59 -200 52 -207 -12
-12 -135 224 -258 496 -102 225 -175 362 -250 472 -81 118 -100 130 -51 34 22
-44 59 -125 82 -180 58 -137 94 -206 194 -375 95 -159 136 -267 136 -356 0
-61 -6 -64 -66 -39 -37 15 -50 38 -85 150 -10 34 -28 70 -39 80 -20 18 -20 18
-20 -11 0 -16 7 -57 15 -92 10 -40 12 -69 6 -80 -7 -13 -14 -11 -41 19 -40 42
-76 118 -129 274 -40 115 -95 225 -114 225 -16 0 2 -97 32 -173 16 -40 48
-115 72 -167 31 -69 44 -111 46 -155 l4 -60 -21 44 c-11 24 -43 81 -70 126
-59 97 -96 178 -105 228 -4 20 -14 42 -22 49 -30 24 -65 91 -104 196 -47 124
-69 169 -104 211 -73 85 -51 20 140 -414 94 -215 158 -375 153 -381 -6 -6 -63
86 -119 191 -104 197 -171 271 -278 302 -73 21 -149 13 -243 -26 -95 -40 -98
-39 -183 90 -59 88 -123 159 -144 159 -10 0 1 -56 16 -85 6 -11 35 -49 63 -85
59 -73 89 -132 90 -173 0 -15 -16 -68 -35 -117 -19 -49 -35 -99 -35 -110 0
-11 13 -34 30 -52 36 -40 42 -34 59 63 21 114 66 157 166 158 87 1 167 -39
206 -103 20 -33 26 -110 9 -136 -10 -16 1 -23 -115 76 -137 117 -160 129 -123
62 13 -23 76 -94 140 -158 136 -135 169 -190 170 -290 l1 -60 81 -54 c102 -68
219 -167 274 -233 43 -52 112 -160 112 -176 0 -26 -249 169 -495 387 -290 258
-347 303 -290 231 109 -139 258 -305 559 -622 121 -128 226 -243 233 -255 15
-27 17 -61 4 -56 -16 5 -216 175 -366 308 -77 69 -349 332 -605 585 -256 253
-505 498 -555 545 -49 47 -108 110 -131 141 -48 64 -106 114 -149 129 -21 7
-36 24 -50 53 -19 39 -98 108 -110 95 -8 -7 99 -167 175 -262 34 -44 196 -215
359 -381 306 -312 399 -414 496 -550 80 -112 81 -115 47 -106 -87 25 -161 80
-336 251 -96 93 -168 154 -199 169 -26 13 -50 21 -53 18 -12 -12 73 -101 186
-193 164 -134 235 -225 163 -208 -66 16 -67 17 -168 132 -21 23 -42 42 -47 42
-23 0 4 -67 42 -105 39 -40 50 -65 29 -65 -26 0 -130 80 -358 275 -91 77 -198
165 -238 196 -73 55 -211 142 -247 155 -17 7 -17 5 -3 -22 27 -52 125 -140
278 -249 151 -109 174 -130 244 -229 93 -133 408 -408 672 -587 89 -61 186
-131 214 -157 57 -51 133 -142 125 -149 -6 -7 -202 111 -363 219 -72 48 -268
185 -435 305 -262 188 -460 322 -645 438 -29 18 -57 46 -71 73 -15 27 -30 42
-43 42 -38 0 -84 27 -153 90 -70 63 -117 90 -158 90 -20 -1 -18 -5 22 -41 73
-65 302 -236 500 -374 357 -248 539 -382 655 -479 90 -76 219 -197 251 -236
28 -33 24 -31 -116 41 -80 42 -275 149 -435 239 -159 89 -346 192 -415 228
-77 41 -141 83 -167 109 -24 24 -65 51 -92 62 -26 10 -99 49 -161 86 -104 63
-193 105 -222 105 -6 0 117 -86 273 -191 352 -238 899 -628 954 -682 16 -15
-76 1 -153 27 -87 30 -175 75 -350 179 -129 77 -191 107 -432 206 -42 17 -152
76 -245 132 -94 55 -201 117 -240 136 -87 44 -205 89 -185 71 26 -24 598 -393
1080 -696 151 -95 187 -123 212 -161 37 -55 23 -52 -137 22 -131 62 -200 101
-410 237 -184 119 -286 180 -370 222 l-60 30 30 -32 c32 -33 127 -99 289 -199
97 -60 216 -150 216 -162 0 -4 -18 -2 -40 3 -31 8 -67 7 -148 -6 -228 -35
-274 -21 -572 169 -166 105 -250 149 -318 164 -47 10 -51 5 -22 -32 28 -36 72
-61 165 -93 49 -17 96 -42 121 -64 23 -19 100 -66 170 -103 71 -37 149 -84
174 -106 l45 -38 -38 -38 -38 -38 -72 5 c-93 6 -178 42 -378 158 -85 50 -190
104 -234 120 -165 63 -211 85 -243 117 -23 22 -44 33 -62 33 -16 0 -64 19
-107 42 -43 22 -98 52 -122 65 -64 33 -144 30 -154 -7 -8 -30 13 -47 93 -80
41 -17 84 -39 95 -49 11 -10 45 -26 75 -36 77 -25 279 -109 375 -157 108 -54
636 -348 658 -366 22 -19 24 -114 3 -131 -11 -10 -63 13 -256 109 -133 67
-265 130 -293 142 -61 25 -197 68 -197 63 0 -5 161 -90 540 -285 173 -89 348
-184 390 -211 97 -62 143 -81 176 -73 24 6 54 48 42 59 -3 3 -34 10 -69 16
-121 18 -119 17 -141 67 -29 68 -37 98 -31 122 5 17 11 20 31 15 60 -15 275
-120 449 -221 199 -113 292 -175 332 -218 l24 -26 -25 0 c-14 0 -45 7 -68 15
-75 27 -76 26 -123 -128 -14 -47 7 -94 39 -89 10 2 56 6 101 9 114 7 228 -28
308 -95 57 -47 46 -52 -37 -16 -143 63 -248 90 -248 65 0 -5 17 -15 38 -21 59
-19 398 -158 450 -184 45 -23 100 -71 91 -80 -10 -10 -135 40 -309 124 -102
49 -213 96 -246 104 -66 17 -179 22 -170 7 3 -5 48 -25 101 -46 116 -46 143
-71 43 -39 -40 12 -199 61 -353 109 -894 275 -2684 882 -2730 925 -28 26 -69
40 -120 40 -81 0 -93 -17 -49 -70 37 -44 56 -51 274 -113 521 -148 724 -214
780 -252 123 -83 274 -148 645 -277 127 -44 271 -96 320 -115 150 -59 381
-184 308 -167 -10 2 -106 26 -213 53 -285 71 -417 79 -190 11 58 -17 143 -43
190 -57 47 -14 110 -38 140 -54 l55 -30 -80 6 c-198 15 -451 65 -807 161 -303
81 -569 146 -575 140 -7 -6 82 -51 163 -81 36 -14 157 -50 268 -81 110 -30
279 -80 375 -110 167 -54 443 -162 464 -183 11 -11 -107 14 -245 52 -161 44
-87 -8 87 -62 94 -29 173 -66 163 -77 -6 -6 -162 27 -338 71 -168 42 -315 85
-670 196 -415 130 -853 249 -867 235 -10 -10 32 -58 66 -76 20 -10 86 -25 146
-34 121 -17 164 -30 460 -134 110 -38 313 -104 450 -147 548 -168 723 -229
788 -274 67 -46 153 -78 354 -130 271 -71 388 -114 424 -158 17 -20 -3 -17
-157 24 -109 28 -160 37 -239 38 -76 2 -119 8 -180 28 -79 26 -561 163 -765
218 -101 27 -260 40 -260 22 0 -5 136 -43 303 -87 331 -86 488 -134 620 -191
79 -34 85 -39 74 -56 -19 -31 -70 -49 -139 -49 -70 0 -500 45 -818 85 -418 53
-830 121 -1061 175 -170 40 -272 38 -286 -7 -9 -26 59 -53 133 -53 75 0 345
-35 969 -124 209 -30 454 -62 545 -71 239 -24 323 -40 463 -90 106 -37 158
-48 343 -75 253 -36 422 -67 444 -81 10 -7 -63 -8 -215 -5 -257 7 -367 14
-835 56 -179 16 -399 34 -490 40 -91 6 -210 16 -265 22 -140 16 -171 15 -194
-6 -11 -10 -18 -22 -16 -26 8 -12 186 -29 380 -35 99 -3 209 -10 245 -16 82
-11 150 -29 150 -39 0 -15 -52 -62 -85 -76 -47 -19 -148 -18 -290 6 -144 23
-204 25 -250 6 -78 -33 -39 -45 185 -56 174 -9 224 -19 261 -49 l23 -18 -28
-28 c-27 -27 -29 -28 -114 -21 -233 18 -242 19 -242 8 0 -30 52 -45 183 -52
120 -6 177 -18 177 -38 0 -4 7 -54 15 -111 11 -74 12 -108 5 -115 -7 -7 -91
-13 -208 -17 -204 -6 -233 -11 -267 -50 -18 -20 -18 -22 -2 -16 9 4 87 11 172
17 202 14 461 1 926 -47 326 -33 382 -36 714 -38 305 -3 486 -13 502 -29 2 -2
-34 -5 -80 -8 -82 -5 -147 -27 -147 -50 0 -8 40 -9 148 -2 180 10 246 8 281
-10 l26 -14 -25 -6 c-98 -21 -757 -49 -970 -42 -232 9 -274 14 -259 32 8 9 34
14 78 15 55 0 62 2 41 11 -24 10 -107 9 -690 -11 -204 -7 -252 -15 -264 -47
-3 -7 3 -15 12 -19 9 -4 130 -11 267 -15 138 -5 283 -12 323 -15 77 -7 88 0
56 36 -22 25 -9 39 35 39 53 0 84 -28 110 -99 27 -74 60 -115 115 -143 50 -25
106 -66 106 -77 0 -5 -36 -14 -79 -20 -83 -12 -322 -69 -618 -145 -94 -25
-245 -56 -335 -70 -157 -24 -278 -58 -322 -91 -28 -21 -18 -25 34 -15 25 5
124 23 220 40 263 47 637 129 1107 245 395 97 424 103 450 90 39 -21 63 -19
188 15 130 35 168 37 213 10 28 -17 32 -23 22 -35 -7 -8 -17 -15 -22 -15 -5 0
-25 -7 -45 -15 -27 -12 -34 -18 -25 -27 8 -8 34 -6 102 11 85 22 156 22 134 1
-12 -11 -253 -85 -324 -98 -81 -16 -160 -22 -160 -13 0 5 36 18 80 31 43 12
87 31 96 41 23 26 16 25 -137 -20 -236 -70 -1026 -347 -1016 -357 2 -2 145 33
317 77 453 115 784 188 798 175 6 -7 -372 -128 -706 -227 -444 -130 -647 -194
-817 -256 -153 -56 -318 -123 -313 -128 4 -4 233 57 448 120 181 53 335 101
1030 323 190 61 391 125 448 142 91 28 102 33 102 54 0 31 18 44 74 55 47 9
55 4 34 -17 -8 -8 -9 -15 -2 -22 6 -6 37 -1 87 15 76 25 163 34 153 16 -22
-35 -662 -255 -1285 -441 -150 -45 -354 -111 -454 -147 -223 -80 -307 -102
-419 -110 -70 -5 -87 -9 -91 -23 -2 -9 -15 -20 -28 -23 -13 -3 -91 -24 -174
-47 -82 -22 -240 -64 -350 -91 -305 -76 -663 -184 -652 -195 5 -5 184 24 382
62 239 47 636 149 1055 274 417 124 790 230 980 279 213 55 430 104 436 98 3
-2 -41 -25 -97 -51 -122 -58 -349 -133 -531 -177 -87 -20 -149 -41 -178 -60
-125 -78 -308 -154 -700 -290 -113 -39 -365 -137 -560 -217 -195 -79 -400
-160 -454 -178 -103 -35 -130 -52 -139 -85 -3 -10 -4 -19 -3 -19 21 0 154 50
320 122 255 109 334 139 451 168 50 13 143 48 210 80 203 98 444 183 662 234
103 24 103 24 103 3 0 -36 -78 -100 -155 -126 -39 -14 -187 -74 -330 -134
-427 -179 -768 -315 -836 -332 -90 -23 -144 -51 -158 -81 -16 -35 -11 -37 33
-19 20 9 182 70 359 136 177 67 405 154 507 194 102 41 205 81 230 89 104 35
300 67 300 49 0 -22 -176 -111 -402 -204 -188 -77 -326 -145 -373 -183 -29
-24 -26 -24 62 9 51 18 191 77 313 129 196 85 420 171 425 164 62 -94 60 -108
-22 -154 -225 -126 -609 -298 -1108 -496 -82 -33 -168 -70 -190 -83 -45 -26
-102 -82 -93 -91 11 -10 129 25 243 72 189 78 871 348 1083 429 l204 78 55
-13 c45 -11 74 -11 157 -1 55 7 105 17 111 22 15 15 -10 31 -59 36 -46 6 -77
27 -60 42 9 8 447 190 814 339 234 94 472 183 476 179 8 -7 -158 -92 -414
-213 -263 -123 -437 -212 -430 -220 5 -4 185 56 449 149 153 54 347 112 354
105 2 -2 -56 -30 -128 -63 -72 -33 -296 -147 -497 -254 -416 -221 -753 -388
-920 -456 -63 -26 -169 -77 -235 -115 -327 -184 -799 -424 -1015 -515 -173
-74 -202 -88 -245 -126 -45 -40 -45 -53 2 -44 39 7 78 25 223 103 52 28 115
56 140 62 25 7 146 65 270 130 401 212 867 433 1160 550 83 33 113 51 145 85
53 57 74 67 116 55 30 -9 62 -7 109 6 8 2 16 16 17 30 0 15 10 38 20 53 25 33
116 88 168 102 22 6 49 13 60 16 17 5 18 4 7 -9 -7 -9 -39 -25 -72 -37 -37
-14 -67 -32 -77 -47 -8 -14 -14 -26 -12 -28 2 -2 137 59 299 136 486 230 639
299 800 363 67 26 238 85 247 85 10 0 -209 -126 -762 -437 -258 -146 -473
-267 -476 -269 -3 -1 -18 4 -33 12 -55 28 -76 12 -28 -22 51 -38 54 -37 224
58 169 94 344 181 388 192 14 4 3 -5 -25 -20 -88 -46 -255 -145 -408 -241 -81
-51 -154 -93 -161 -93 -7 0 -21 9 -31 20 -10 11 -22 20 -27 20 -4 0 -50 -29
-101 -64 -141 -97 -239 -152 -662 -371 -214 -111 -432 -227 -482 -258 -119
-72 -230 -147 -219 -147 7 0 1058 525 1419 709 93 48 116 55 165 56 53 0 122
-19 122 -34 -1 -11 -283 -181 -780 -471 -552 -321 -828 -488 -865 -522 -16
-15 61 20 200 89 137 69 322 172 595 333 91 53 237 136 325 185 88 48 208 116
266 151 251 150 399 207 573 220 l97 7 62 70 c170 192 193 211 286 229 46 8
121 1 121 -13 0 -14 -154 -123 -373 -264 -246 -158 -415 -281 -442 -321 -29
-45 -21 -94 29 -187 25 -46 46 -93 46 -105 0 -26 -62 -80 -390 -341 -257 -204
-421 -344 -505 -431 l-50 -52 75 47 c41 26 182 125 313 219 202 146 394 282
624 442 67 46 112 49 151 10 l27 -27 -81 -77 c-44 -42 -156 -135 -250 -206
-260 -199 -355 -278 -420 -349 -61 -67 -109 -137 -83 -122 24 15 157 124 328
270 302 257 525 435 580 462 58 29 156 42 186 26 15 -9 9 -19 -44 -81 -34 -40
-146 -150 -249 -246 -170 -158 -284 -276 -267 -276 15 0 245 181 399 314 90
77 244 210 342 295 208 180 297 247 379 288 58 29 115 48 115 39 0 -11 -218
-278 -510 -626 -359 -428 -623 -759 -654 -820 -10 -20 74 69 279 297 370 410
462 507 716 753 282 273 331 316 394 348 53 26 155 35 155 13 0 -28 -618 -735
-864 -988 -143 -149 -161 -174 -154 -228 3 -26 5 -24 55 36 62 77 263 274 509
501 100 92 246 238 325 324 125 137 338 339 346 330 7 -7 -146 -246 -477 -746
-191 -289 -370 -562 -399 -608 -76 -121 -170 -282 -166 -282 5 0 270 335 425
535 67 88 346 457 618 820 272 363 502 667 510 675 22 22 -93 -193 -242 -455
-73 -126 -154 -269 -180 -317 -54 -101 -148 -309 -142 -315 10 -11 76 105 76
135 0 10 21 45 46 78 82 103 174 252 321 517 145 261 240 419 296 492 53 69
129 156 133 152 5 -5 -110 -221 -203 -382 -101 -173 -286 -468 -546 -870 -164
-253 -220 -333 -243 -343 -16 -7 -36 -17 -44 -21 -8 -4 -47 -70 -85 -147 -39
-76 -97 -182 -129 -234 -136 -220 -227 -373 -296 -500 -40 -74 -94 -165 -120
-201 -26 -36 -55 -80 -64 -97 -16 -31 -22 -112 -8 -112 4 0 70 101 146 223 77
122 246 384 376 582 130 198 328 509 440 690 112 182 260 416 329 520 128 194
273 396 279 391 6 -7 -107 -261 -183 -411 -145 -283 -292 -533 -487 -828 -199
-301 -280 -444 -327 -574 -27 -75 -47 -163 -36 -163 3 0 28 46 56 103 133 264
257 478 449 772 76 116 186 300 245 410 115 213 223 384 302 477 l48 57 22
-21 c31 -29 46 -72 39 -112 -7 -37 -29 -59 -160 -159 -38 -28 -83 -69 -100
-90 -42 -53 -41 -114 4 -222 25 -59 34 -96 34 -141 1 -79 -26 -115 -131 -180
-130 -79 -156 -98 -175 -129 -28 -47 -22 -83 28 -169 42 -71 46 -84 42 -127
-6 -62 -64 -182 -189 -390 -93 -157 -163 -301 -156 -322 4 -12 156 215 227
338 102 177 254 515 323 716 3 9 25 26 49 37 65 32 71 49 79 202 8 154 27 223
86 308 37 54 108 112 137 112 9 0 16 -1 16 -2 0 -15 -61 -224 -113 -388 -82
-258 -102 -333 -122 -444 -8 -49 -15 -90 -15 -92 0 -2 6 -1 13 2 29 11 56 81
67 169 11 93 30 165 82 320 72 214 317 842 317 815 1 -26 -45 -216 -117 -485
-84 -315 -94 -357 -132 -560 -32 -173 -68 -305 -123 -455 -51 -141 -135 -344
-179 -434 -41 -86 -49 -147 -24 -182 8 -10 16 -17 18 -14 2 3 32 63 65 135
113 239 193 450 318 840 42 132 115 359 161 505 75 232 176 482 190 468 2 -3
-9 -63 -26 -134 -44 -196 -114 -569 -159 -854 -51 -327 -123 -841 -118 -846 2
-3 16 22 30 54 16 35 44 147 72 286 25 126 86 389 136 585 139 542 155 607
182 734 27 122 75 243 109 274 20 18 20 17 14 -37 -13 -119 -26 -394 -36 -790
-13 -514 -29 -949 -37 -1014 -7 -57 10 -60 41 -7 16 28 19 57 21 194 3 186 20
351 75 732 40 277 108 740 113 763 3 19 74 -35 99 -76 38 -62 30 -133 -36
-300 -66 -166 -75 -225 -52 -350 29 -163 119 -304 228 -362 35 -18 78 -44 96
-57 66 -50 91 -144 92 -353 1 -134 11 -188 48 -250 l27 -45 3 70 c2 39 -6 130
-18 205 -25 160 -25 327 0 321 8 -2 45 -3 81 -3 72 0 153 28 186 64 17 19 17
19 -7 14 -113 -25 -200 -32 -259 -20 l-31 6 0 108 c0 117 -9 319 -41 892 -11
208 -19 383 -16 390 8 22 37 -92 68 -265 31 -176 57 -270 91 -324 11 -18 21
-33 23 -33 11 0 -12 124 -52 285 -26 106 -46 213 -49 260 l-4 80 21 -45 c12
-24 44 -133 71 -242 47 -189 78 -280 112 -323 15 -19 15 -18 10 15 -14 85 -57
247 -104 395 -28 88 -60 198 -71 245 -22 93 -37 306 -20 279 20 -30 131 -377
170 -530 22 -85 67 -286 101 -445 34 -159 83 -388 110 -509 27 -121 56 -276
65 -345 9 -69 23 -148 31 -176 13 -47 71 -151 78 -143 2 2 -7 51 -20 109 -28
124 -70 371 -119 710 -49 328 -75 467 -135 710 -83 333 -101 427 -108 558 -4
67 -4 122 -1 122 8 0 94 -149 124 -215 34 -76 62 -150 134 -350 32 -88 103
-266 158 -395 55 -129 137 -329 183 -445 97 -248 189 -466 231 -544 l29 -56
-6 40 c-17 110 -87 342 -194 640 -11 33 -38 119 -60 191 -31 105 -48 145 -88
205 -28 41 -75 124 -105 184 -55 110 -203 492 -195 500 7 8 66 -79 99 -146 17
-35 58 -136 90 -225 65 -182 128 -315 129 -274 0 41 -36 161 -79 259 -57 128
-81 207 -81 263 0 44 2 48 24 48 27 0 70 -31 88 -63 8 -13 15 -85 18 -178 6
-144 8 -159 32 -200 47 -80 100 -118 263 -188 146 -64 170 -81 183 -133 6 -23
21 -80 33 -125 13 -53 29 -89 44 -103 38 -36 45 -19 19 45 -28 66 -56 166 -50
173 11 10 75 -52 98 -95 46 -85 59 -195 37 -305 l-11 -55 -49 -12 c-30 -8 -62
-25 -81 -44 -29 -30 -30 -32 -11 -35 31 -5 84 21 156 75 62 47 64 49 71 103
22 184 -81 420 -227 520 -27 19 -39 37 -57 94 -40 127 -125 326 -268 626 -77
162 -158 340 -180 395 -47 115 -92 238 -89 242 3 2 29 -33 430 -562 154 -203
293 -386 308 -405 15 -19 34 -57 41 -85 9 -38 27 -66 71 -113 47 -52 74 -98
148 -249 74 -153 99 -195 146 -244 31 -32 58 -57 60 -55 5 5 -70 156 -155 311
-37 66 -81 158 -98 204 -26 68 -51 109 -130 209 -125 160 -239 331 -303 455
-55 107 -95 207 -87 215 12 12 236 -231 442 -479 122 -146 259 -306 305 -356
57 -61 121 -148 199 -271 114 -181 189 -280 244 -323 29 -23 29 -22 -14 56
-70 129 -196 324 -322 498 -177 245 -308 439 -382 567 -36 63 -66 118 -66 123
0 34 272 -232 524 -512 270 -301 282 -314 261 -276 -35 60 -113 164 -250 335
-229 284 -316 406 -380 529 l-17 35 43 -35 c118 -93 237 -227 484 -544 244
-313 374 -453 514 -557 l44 -32 -29 45 c-49 76 -203 277 -348 454 -254 311
-370 475 -458 649 l-50 99 59 -6 c168 -18 264 -105 308 -278 l16 -64 97 -45
c164 -76 291 -168 444 -321 75 -75 132 -126 127 -113 -22 59 -47 93 -151 201
-107 112 -110 117 -87 126 66 26 247 3 426 -54 46 -15 83 -92 83 -173 -1 -173
-146 -267 -309 -200 -46 19 -54 18 -41 -7 19 -35 71 -49 180 -49 l100 0 40 36
c22 20 54 65 72 101 44 90 51 209 17 297 -44 118 -140 188 -278 203 -55 5 -62
9 -147 87 -155 142 -231 221 -252 263 -28 53 -47 132 -36 143 14 14 83 -23
148 -79 33 -28 76 -56 95 -62 21 -7 67 -43 113 -90 43 -43 149 -131 236 -197
86 -65 195 -149 241 -186 85 -69 149 -105 185 -106 12 0 -2 15 -40 42 -75 53
-151 115 -445 359 -130 108 -274 225 -322 261 -47 35 -101 85 -119 109 -19 24
-83 87 -142 140 -96 86 -183 185 -172 196 7 8 168 -97 300 -194 218 -161 446
-301 446 -274 0 21 -168 165 -310 266 -85 60 -188 138 -229 174 -73 64 -131
91 -193 91 -37 0 -95 30 -130 67 -14 15 -49 76 -77 135 -57 118 -95 160 -162
178 -45 12 -71 10 -223 -22 -114 -24 -180 -21 -253 12 -99 43 -147 109 -238
323 -60 140 -73 162 -112 194 -50 41 -66 65 -57 87 4 11 14 14 33 10 80 -20
108 -57 144 -192 48 -178 146 -280 327 -337 44 -14 93 -18 240 -19 173 -1 187
-2 215 -23 44 -31 104 -97 173 -189 147 -196 245 -232 527 -195 140 19 258 12
313 -19 47 -26 57 -46 15 -28 -62 27 -459 5 -491 -27 -14 -14 90 -98 185 -151
58 -33 146 -92 197 -132 104 -84 156 -120 198 -134 25 -9 35 -6 83 27 l54 37
88 -52 c48 -29 169 -108 268 -174 99 -67 221 -147 271 -178 87 -54 266 -148
281 -148 12 0 -50 60 -108 105 -31 24 -120 83 -199 130 -168 101 -263 168
-457 319 -135 104 -143 112 -143 145 0 19 -12 54 -26 78 -15 27 -24 55 -22 73
l3 29 80 -34 c45 -18 166 -79 270 -136 310 -168 422 -213 507 -207 42 3 32 9
-277 169 -360 187 -537 287 -705 396 -129 85 -325 229 -354 262 l-20 22 29
-15 c16 -8 31 -13 34 -11 9 10 -34 46 -94 80 -54 30 -84 59 -72 71 12 13 383
-166 725 -350 327 -175 652 -340 658 -334 5 5 -100 77 -201 138 -38 24 -198
109 -355 190 -157 81 -326 172 -377 204 -99 61 -197 135 -190 142 3 3 69 -25
148 -62 165 -76 269 -118 317 -129 18 -4 36 -13 38 -20 8 -19 105 -82 139 -90
17 -3 83 -36 149 -73 98 -54 128 -66 175 -69 71 -5 66 -1 -114 86 -77 37 -151
78 -165 90 l-25 22 90 -5 c107 -6 221 -37 389 -107 204 -85 324 -129 404 -149
111 -28 125 -26 66 12 -62 39 -125 67 -289 129 -140 53 -315 137 -315 150 0 5
35 26 78 47 l78 39 125 -42 c99 -34 500 -186 619 -236 l25 -10 -25 25 c-42 43
-178 113 -340 177 -85 34 -190 79 -233 101 l-78 39 27 32 c37 44 74 67 108 67
16 0 84 -22 151 -49 135 -55 182 -67 222 -56 l28 7 -27 14 c-15 8 -62 27 -105
43 -169 62 -245 112 -259 167 -8 31 2 83 21 108 15 20 16 20 115 -3 101 -22
140 -21 140 4 0 22 -51 44 -137 60 -82 15 -83 16 -133 97 -17 28 -66 76 -124
123 -53 42 -96 79 -96 82 0 10 179 -5 300 -26 63 -11 221 -42 350 -70 264 -56
431 -81 523 -80 l62 1 -45 15 c-163 52 -390 96 -813 158 -433 64 -532 83 -957
190 -503 126 -555 135 -790 144 -171 7 -202 11 -248 31 -29 12 -51 24 -49 26
1 2 212 -19 467 -47 912 -97 1229 -126 1765 -159 182 -11 348 -22 370 -25 207
-24 306 -41 343 -56 51 -22 105 -25 121 -5 9 11 0 17 -46 35 -138 50 -198 60
-858 136 -523 60 -641 76 -815 106 -135 24 -398 87 -420 100 -20 13 208 4 440
-18 189 -17 517 -23 591 -10 43 7 45 9 41 36 -2 16 5 49 16 75 l21 46 -28 0
c-15 0 -75 -24 -132 -52 -96 -49 -109 -53 -174 -53 -90 1 -159 33 -308 141
l-107 79 92 8 c130 11 1191 14 1373 4 131 -7 148 -7 135 6 -40 38 -49 39 -660
57 -568 17 -826 37 -980 74 -54 13 -55 13 -27 24 44 19 213 50 327 62 58 6
339 15 625 20 286 6 536 13 555 17 l35 7 -45 8 c-25 5 -292 13 -595 18 -504 8
-680 17 -761 39 -26 7 -19 10 61 29 137 32 310 50 535 58 173 6 211 10 242 26
43 23 135 38 235 38 90 0 166 16 195 40 l23 19 -39 1 c-21 0 -111 -9 -198 -21
-88 -11 -174 -19 -191 -17 -28 3 -32 7 -38 39 -6 43 -43 104 -105 178 -25 29
-43 55 -41 57 17 18 169 27 482 29 317 2 367 4 415 20 50 16 53 19 30 26 -48
14 -347 8 -580 -11 -294 -25 -536 -26 -679 -3 -58 9 -149 17 -202 17 -90 1
-100 -1 -159 -32 -53 -27 -73 -32 -134 -32 -39 0 -134 -7 -211 -15 -153 -16
-307 -19 -370 -6 -22 5 -37 9 -33 10 106 18 401 60 673 96 719 94 1162 157
1190 170 29 14 -391 -10 -722 -41 -276 -26 -445 -37 -628 -40 l-250 -3 56 18
c126 43 406 96 769 146 675 93 917 134 1105 184 87 24 66 25 -100 6 -123 -15
-229 -30 -870 -124 -435 -64 -946 -110 -1110 -99 l-50 3 66 22 c47 15 114 25
222 33 156 10 227 25 272 54 14 9 98 32 187 52 90 19 347 80 571 134 225 55
469 111 543 125 120 23 251 62 241 71 -14 14 -868 -118 -1291 -200 l-128 -25
-46 24 -46 24 -14 -29 c-39 -80 -265 -107 -333 -39 -37 37 -25 53 54 73 122
31 276 81 687 223 456 158 665 222 835 258 216 46 289 66 358 97 37 17 65 33
63 36 -14 13 -472 -93 -1256 -291 -388 -98 -821 -197 -863 -197 -20 0 44 34
120 63 63 25 112 57 86 57 -25 0 -134 -38 -303 -106 -172 -68 -295 -104 -357
-104 -26 0 -26 0 -7 21 30 33 65 47 228 94 83 24 259 87 390 139 262 105 382
146 498 170 121 25 131 18 28 -20 -202 -73 -262 -98 -316 -132 -30 -19 -54
-36 -52 -38 2 -1 217 69 478 157 562 189 825 272 1053 334 175 47 214 62 248
96 19 19 27 45 11 35 -18 -11 -752 -211 -1065 -291 -333 -84 -534 -129 -637
-140 l-55 -7 30 21 c46 32 211 94 402 150 94 28 201 63 238 76 109 41 241 114
208 115 -19 0 -166 -47 -338 -110 -170 -62 -285 -94 -375 -105 l-55 -6 32 20
c57 36 273 127 498 210 448 166 620 239 760 326 75 46 65 43 -235 -67 -387
-142 -443 -160 -452 -145 -4 6 -8 36 -8 65 0 28 -1 55 -1 60 -3 12 78 49 209
96 68 25 139 55 158 67 34 21 71 65 62 74 -7 7 -127 -36 -278 -100 -74 -32
-157 -65 -185 -75 l-50 -17 -37 29 c-21 16 -38 33 -38 38 0 13 70 55 277 166
182 98 334 191 347 212 8 13 -101 -25 -351 -121 -122 -48 -262 -98 -310 -112
-91 -26 -235 -56 -241 -50 -5 5 105 86 178 132 36 22 131 75 210 118 270 144
431 246 484 304 l19 21 -49 -21 c-27 -11 -254 -121 -504 -244 -250 -123 -500
-242 -555 -264 -119 -48 -268 -101 -272 -97 -2 2 90 54 204 116 203 111 573
327 573 336 0 6 -94 -33 -170 -71 -38 -19 -143 -78 -232 -132 -159 -94 -405
-220 -413 -211 -3 2 24 23 58 46 34 22 134 105 222 182 164 145 249 206 447
320 100 58 238 168 238 191 0 19 -240 -119 -635 -364 -353 -220 -479 -294
-615 -362 -115 -57 -289 -129 -296 -122 -15 15 612 483 1166 872 138 96 213
155 195 151 -59 -14 -162 -69 -290 -155 -148 -100 -378 -237 -510 -305 -90
-46 -175 -80 -175 -70 0 3 12 30 26 60 46 97 125 168 432 387 266 190 460 343
449 354 -19 19 -290 -158 -547 -356 -203 -157 -390 -284 -360 -245 169 223
387 422 817 747 77 59 157 125 176 147 34 37 73 100 62 100 -7 0 -157 -107
-280 -199 -120 -90 -330 -258 -595 -476 -231 -191 -343 -280 -505 -401 -126
-95 -311 -224 -321 -224 -3 0 16 28 43 62 82 107 470 494 649 648 158 137 304
282 304 303 0 18 -169 -128 -454 -391 -216 -199 -400 -359 -481 -417 -22 -16
241 254 585 601 856 862 1098 1114 1071 1114 -37 0 -77 -27 -131 -90 -29 -32
-72 -69 -95 -80 -30 -14 -91 -75 -211 -208 -214 -238 -638 -661 -817 -817
-139 -121 -189 -158 -156 -119 9 10 53 66 99 124 77 96 235 282 545 640 64 74
124 144 133 154 13 15 14 18 2 11 -44 -24 -163 -132 -310 -280 -91 -92 -185
-181 -210 -200 -43 -31 -122 -75 -136 -75 -10 0 65 131 109 190 22 30 136 152
252 270 185 188 291 310 269 310 -25 0 -171 -125 -354 -305 -118 -115 -227
-216 -241 -223 -25 -13 -30 -11 -109 49 -117 89 -117 91 -36 184 65 74 110
147 104 166 -7 20 -100 -56 -142 -115 -63 -88 -112 -189 -95 -195 7 -2 31 -21
53 -41 35 -33 40 -43 44 -93 6 -71 -20 -128 -84 -187 -65 -60 -144 -93 -220
-94 -35 -1 -65 2 -69 6 -13 12 36 87 104 161 73 79 94 112 105 164 7 28 5 31
-14 26 -38 -10 -110 -86 -188 -198 -86 -122 -139 -168 -209 -183 -49 -11 -138
-1 -156 17 -15 15 37 94 120 185 86 92 121 143 130 187 l6 31 -29 -18 c-69
-43 -122 -94 -219 -213 -144 -177 -208 -230 -303 -252 l-33 -7 59 111 c33 62
133 240 222 397 159 277 330 588 330 598 0 6 -68 -71 -120 -137 -91 -115 -207
-308 -322 -536 -112 -221 -225 -421 -234 -413 -7 8 285 744 362 910 56 121 62
152 34 197 -12 18 -23 31 -26 28 -3 -3 -10 -36 -15 -73 -7 -53 -28 -107 -86
-229 -41 -88 -127 -272 -190 -410 -150 -327 -314 -659 -403 -815 -78 -137
-221 -355 -269 -410 l-31 -35 39 95 c60 149 130 299 311 660 195 391 296 622
306 700 9 71 22 104 78 185 52 77 73 134 59 160 -8 14 -17 5 -50 -56 -57 -104
-136 -279 -243 -534 -155 -372 -259 -582 -350 -710 l-22 -30 7 30 c11 48 93
250 167 410 89 193 118 265 185 460 30 88 86 229 124 313 42 93 72 173 76 203
3 27 3 49 0 49 -9 0 -142 -246 -203 -377 -71 -151 -308 -695 -364 -836 -33
-84 -54 -121 -92 -163 -28 -30 -53 -54 -58 -54 -11 0 25 220 65 399 42 187
188 703 252 890 48 139 54 205 21 237 -12 12 -21 -15 -67 -184 -52 -195 -106
-352 -120 -352 -4 0 -17 23 -28 50 -16 38 -26 50 -43 50 -15 0 -20 -5 -17 -14
19 -50 29 -111 30 -178 1 -66 -4 -85 -31 -141 -33 -67 -80 -109 -135 -123
l-29 -7 7 49 c32 226 139 660 189 764 41 84 46 136 17 171 l-19 24 -6 -25 c-3
-14 -13 -61 -22 -105 -8 -44 -65 -228 -124 -410 -96 -291 -160 -511 -160 -554
0 -8 -17 -32 -37 -55 -94 -104 -106 -130 -124 -271 -20 -153 -41 -242 -82
-345 -27 -67 -114 -216 -122 -208 -11 10 58 477 160 1088 40 245 88 537 105
650 17 113 41 235 51 272 19 62 19 68 4 98 -9 18 -19 30 -21 27 -20 -19 -104
-388 -215 -937 -125 -620 -172 -823 -248 -1089 -30 -104 -50 -147 -37 -81 34
177 78 580 121 1105 49 601 52 641 81 905 17 152 33 252 45 283 11 26 19 58
19 71 0 23 -28 56 -47 56 -13 0 -28 -80 -48 -256 -14 -115 -36 -229 -48 -240
-3 -3 -18 8 -33 24 -17 17 -58 38 -97 51 -38 13 -80 33 -94 45 l-26 23 20 159
c21 160 20 225 -6 272 -13 24 -17 26 -24 15z"/>
<path d="M6725 10393 c7 -134 24 -237 47 -288 12 -28 13 -21 16 85 3 121 -8
217 -35 288 -28 74 -35 50 -28 -85z"/>
<path d="M4966 10323 c16 -68 74 -147 89 -123 14 22 -6 80 -39 115 -41 43 -59
46 -50 8z"/>
<path d="M10290 10012 c-68 -67 -89 -95 -90 -125 0 -16 2 -16 31 -2 42 22 107
83 125 116 15 30 19 66 7 71 -5 2 -37 -25 -73 -60z"/>
<path d="M9678 9684 c-27 -14 -85 -110 -74 -122 12 -11 75 28 89 55 18 36 29
83 20 83 -5 -1 -20 -8 -35 -16z"/>
<path d="M6415 9529 c-8 -44 6 -69 36 -69 22 0 24 22 8 68 -16 47 -36 48 -44
1z"/>
<path d="M6444 9406 c-7 -28 1 -46 20 -46 18 0 28 41 14 57 -16 19 -27 16 -34
-11z"/>
<path d="M11830 8904 c-52 -30 -112 -72 -133 -92 -44 -42 -74 -92 -56 -92 28
0 158 79 211 129 55 50 99 111 81 111 -5 0 -51 -25 -103 -56z"/>
<path d="M1571 8859 c21 -32 57 -57 97 -68 27 -8 32 -7 32 8 0 30 -54 72 -101
78 l-44 6 16 -24z"/>
<path d="M1743 8764 c-8 -21 14 -40 55 -49 37 -8 40 2 11 39 -23 29 -56 34
-66 10z"/>
<path d="M1944 8648 c-8 -12 21 -38 43 -38 20 0 15 28 -6 40 -25 13 -28 13
-37 -2z"/>
<path d="M2180 8500 c0 -18 48 -60 67 -60 42 1 42 16 1 43 -44 28 -68 34 -68
17z"/>
<path d="M12388 7908 c-34 -12 -37 -38 -5 -38 27 0 70 28 62 41 -7 11 -22 10
-57 -3z"/>
<path d="M1360 7497 c0 -27 38 -47 169 -92 72 -25 248 -91 389 -146 512 -201
614 -238 684 -248 49 -7 88 -20 136 -47 203 -115 254 -128 309 -80 32 28 34
26 -66 51 -108 27 -169 54 -197 88 -33 39 -21 44 60 24 33 -9 78 -18 99 -21
35 -5 37 -4 37 24 0 36 -22 52 -105 75 -33 9 -68 24 -77 32 -52 46 55 45 168
-2 128 -53 176 -44 88 17 -93 64 -255 87 -371 53 -60 -18 -61 -18 -353 103
-277 114 -426 158 -510 150 -29 -2 4 -17 185 -82 262 -94 434 -166 538 -226
75 -42 76 -44 59 -63 -14 -16 -26 -18 -67 -14 -69 8 -363 112 -781 278 -193
76 -360 139 -372 139 -12 0 -22 -6 -22 -13z"/>
<path d="M1226 6397 c-17 -13 -17 -14 -1 -30 18 -18 60 -23 70 -7 6 10 -29 50
-43 50 -5 0 -16 -6 -26 -13z"/>
<path d="M11810 4990 c-19 -4 -29 -8 -21 -9 8 0 109 -12 225 -26 393 -46 540
-48 554 -7 3 9 -17 12 -75 12 -43 0 -163 9 -268 20 -192 20 -351 24 -415 10z"/>
<path d="M1045 4864 c-44 -8 -104 -27 -135 -42 l-55 -27 100 -2 c64 -2 160 6
265 21 l165 23 -40 18 c-54 24 -198 29 -300 9z"/>
<path d="M662 4808 c-22 -22 -13 -36 27 -43 62 -10 134 34 79 49 -38 10 -93 7
-106 -6z"/>
<path d="M11340 3360 c39 -30 121 -73 127 -66 4 3 1 17 -5 31 -14 30 -67 55
-114 55 l-33 0 25 -20z"/>
<path d="M2882 3214 c-12 -8 -22 -19 -22 -25 0 -19 47 -8 70 16 l23 25 -24 0
c-14 0 -35 -7 -47 -16z"/>
<path d="M11440 3158 c0 -24 87 -94 135 -110 97 -31 57 38 -50 88 -82 38 -85
39 -85 22z"/>
<path d="M10466 2755 c125 -117 674 -538 674 -517 0 11 -173 179 -255 248 -38
33 -108 87 -155 120 -89 64 -306 204 -317 204 -3 0 20 -25 53 -55z"/>
<path d="M3124 2252 c-66 -43 -193 -121 -281 -175 -150 -92 -317 -207 -299
-207 18 0 176 76 256 124 47 27 170 103 274 168 104 65 193 118 198 118 16 0
4 45 -12 46 -8 1 -69 -32 -136 -74z"/>
</g>
</svg>
